HIERARCHY
ROOT Hips
{
  OFFSET 52.4388 87.9072 -102.522
  CHANNELS 6 Xposition Yposition Zposition Zrotation Xrotation Yrotation
  JOINT ToSpine
  {
    OFFSET -2.69724 7.43032 -0.144315
    CHANNELS 3 Zrotation Xrotation Yrotation
    JOINT Spine
    {
      OFFSET -0.0310711 10.7595 1.96963
      CHANNELS 3 Zrotation Xrotation Yrotation
      JOINT Spine1
      {
        OFFSET 19.9056 3.91189 0.764692
        CHANNELS 3 Zrotation Xrotation Yrotation
        JOINT Neck
        {
          OFFSET 25.9749 7.03908 -0.130764
          CHANNELS 3 Zrotation Xrotation Yrotation
          JOINT Head
          {
            OFFSET 9.52751 0.295786 -0.907742
            CHANNELS 3 Zrotation Xrotation Yrotation
            End Site
            {
              OFFSET 16.4037 0.713936 2.7358
            }
          }
        }
        JOINT LeftShoulder
        {
          OFFSET 17.7449 4.33886 11.7777
          CHANNELS 3 Zrotation Xrotation Yrotation
          JOINT LeftArm
          {
            OFFSET 0.911315 1.27913 9.80584
            CHANNELS 3 Zrotation Xrotation Yrotation
            JOINT LeftForeArm
            {
              OFFSET 28.6126 1.18197 -3.53199
              CHANNELS 3 Zrotation Xrotation Yrotation
              JOINT LeftHand
              {
                OFFSET 27.5088 0.0218783 0.327423
                CHANNELS 3 Zrotation Xrotation Yrotation
                End Site
                {
                  OFFSET 18.6038 -0.000155887 0.382096
                }
              }
            }
          }
        }
        JOINT RightShoulder
        {
          OFFSET 17.1009 2.89543 -12.2328
          CHANNELS 3 Zrotation Xrotation Yrotation
          JOINT RightArm
          {
            OFFSET 1.4228 0.178766 -10.211
            CHANNELS 3 Zrotation Xrotation Yrotation
            JOINT RightForeArm
            {
              OFFSET 28.733 1.87905 2.64907
              CHANNELS 3 Zrotation Xrotation Yrotation
              JOINT RightHand
              {
                OFFSET 27.4588 0.290562 -0.101845
                CHANNELS 3 Zrotation Xrotation Yrotation
                End Site
                {
                  OFFSET 17.8396 -0.255518 -0.000602873
                }
              }
            }
          }
        }
      }
    }
  }
  JOINT LeftUpLeg
  {
    OFFSET -5.61296 -2.22332 -10.2353
    CHANNELS 3 Zrotation Xrotation Yrotation
    JOINT LeftLeg
    {
      OFFSET 2.56703 -44.7417 -7.93097
      CHANNELS 3 Zrotation Xrotation Yrotation
      JOINT LeftFoot
      {
        OFFSET 3.16933 -46.5642 -3.96578
        CHANNELS 3 Zrotation Xrotation Yrotation
        JOINT LeftToeBase
        {
          OFFSET 0.346054 -6.02161 12.8035
          CHANNELS 3 Zrotation Xrotation Yrotation
          End Site
          {
            OFFSET 0.134235 -1.35082 5.13018
          }
        }
      }
    }
  }
  JOINT RightUpLeg
  {
    OFFSET -5.7928 -1.72406 10.6446
    CHANNELS 3 Zrotation Xrotation Yrotation
    JOINT RightLeg
    {
      OFFSET -2.57161 -44.7178 -7.85259
      CHANNELS 3 Zrotation Xrotation Yrotation
      JOINT RightFoot
      {
        OFFSET -3.10148 -46.5936 -4.03391
        CHANNELS 3 Zrotation Xrotation Yrotation
        JOINT RightToeBase
        {
          OFFSET -0.0828122 -6.13587 12.8035
          CHANNELS 3 Zrotation Xrotation Yrotation
          End Site
          {
            OFFSET -0.131328 -1.35082 5.13018
          }
        }
      }
    }
  }
}
MOTION
Frames:	15
Frame Time:	0.0333333
25.6914 85.169 32.8132 -60.156 -32.2287 -175.318 -70.1915 0 88.8779 135.816 62.185 -49.5576 7.32234 20.3873 1.14299 -164.449 29.749 169.484 -162.694 69.1835 -175.278 1.95453 -4.17027 -26.6718 -67.9556 29.6963 -128.493 4.36097 6.8736 -20.8467 10.9812 -0.722814 -5.66251 -0.440929 3.33811 31.2303 -68.1477 -49.8239 97.9083 10.1621 -5.70222 54.0802 15.1657 0.486485 3.44803 -28.8628 -0.227749 73.3383 -155.569 80.9803 157.175 5.95312 8.58621 -0.656153 -7.81862 -37.6057 18.661 -30.1021 5.08049 67.4523 18.7261 78.6101 -7.1993 -7.21843 -6.62575 1.10356 6.42863 -7.90544 -12.0504 
20.7668 84.75 36.4871 -59.3102 -20.1482 -175.911 -70.1915 0 88.8779 142.243 63.838 -52.8156 6.93673 23.8514 0.29301 -167.631 27.9894 172.799 -163.051 67.5429 -174.877 2.64403 -1.36609 -30.07 -81.2129 33.5892 -109.261 -1.42541 21.1455 -12.0926 10.4843 -0.325473 -1.81552 -0.353247 3.15615 29.5657 -71.6353 -49.1958 103.188 11.4546 -5.97492 57.3307 12.7871 0.301783 2.46754 -19.1398 1.89422 75.0285 -167.518 70.3149 171.489 7.77166 6.47563 -1.01813 -8.68282 -40.0455 14.6334 -32.8889 12.2371 73.7394 18.9125 78.3157 -5.52675 -8.06078 -9.0462 1.16096 3.56663 -1.05122 -8.68943 
14.2232 85.0325 40.3589 -57.2452 -12.0387 -177.724 -70.1915 0 88.8779 146.481 64.2469 -55.4177 4.07786 25.7112 -1.46102 -168.108 26.8643 174.202 -159.559 66.24 -178.099 2.98072 0.18003 -30.7037 -91.4869 34.7461 -88.8708 -5.32723 29.5462 -5.867 10.223 -0.397308 -2.68048 -0.238357 3.06733 26.4536 -75.4029 -51.5364 108.118 10.5627 -3.83538 67.0761 12.5094 0.378017 3.26597 -7.65794 0.644598 78.0347 -167.436 66.2255 163.841 7.91358 3.7272 -1.05265 -8.48292 -39.9672 15.8936 -39.2619 13.4366 79.561 14.2322 74.0948 4.77872 -8.74083 -9.21759 1.18944 4.03096 -2.86556 -8.64882 
6.4075 85.9719 43.8858 -54.9054 -7.3068 177.333 -70.1915 0 88.8779 146.973 66.1715 -58.0366 1.41409 27.1835 -2.53902 -166.79 26.1422 173.824 -155.623 65.0309 177.789 2.73265 -0.0681411 -28.487 -92.5225 38.4776 -72.8599 -6.46077 31.1845 -4.90518 10.1445 -0.49951 -3.82653 -0.0557499 2.58419 22.214 -81.1168 -52.1766 111.574 14.8671 -2.68958 80.857 10.5163 0.393101 4.17498 2.42725 -1.06687 85.437 -164.107 70.3752 153.288 7.29821 4.00329 -0.956572 -9.2175 -43.1111 14.3432 -48.1584 7.39324 83.9967 9.1624 65.7887 15.9185 -10.254 -11.6511 1.20826 3.10586 -1.82988 -6.83573 
-2.11287 87.6916 46.221 -53.3093 -3.59935 173.466 -70.1915 0 88.8779 149.101 67.8683 -62.2251 0.261156 29.167 -3.91514 -165.243 25.8324 172.46 -154.886 64.5133 176.722 2.14296 -1.95601 -24.7229 -87.5798 48.0311 -63.6287 -4.23161 24.1385 -9.74223 11.2135 -0.63334 -4.63116 0.13117 2.11881 16.1632 -88.7212 -51.3062 114.384 15.8301 -0.110089 93.5055 10.7748 0.404664 4.18899 7.54044 0.828876 92.3916 -152.739 79.2714 139.169 5.3587 1.34072 -0.724279 -8.8186 -42.3944 15.9407 -57.907 4.10531 89.4368 5.28708 52.8676 20.6345 -10.583 -12.4495 1.19794 -0.958584 5.79948 -2.17429 
-11.0702 89.2346 47.7314 -52.0953 -2.40255 171.788 -70.1915 0 88.8779 148.409 69.4417 -61.7858 1.11531 30.2493 -6.34512 -162.666 26.0191 171.021 -154.465 64.6952 177.332 1.78725 -4.10555 -23.4171 -91.5159 50.2469 -57.9981 -4.71485 28.159 -8.66372 10.6178 -0.76241 -6.3198 0.224906 1.10317 12.7658 -93.0599 -50.4181 114.33 13.0959 1.1191 101.938 11.9495 0.475706 4.43036 7.68042 2.87199 98.4934 -94.0415 85.7351 82.0064 3.59413 0.578671 -0.522457 -8.73177 -39.5544 13.7736 -65.1526 4.20424 95.5843 3.02124 42.541 12.5372 -7.30869 -8.23191 1.1221 -17.7124 18.9109 20.6171 
-20.5095 90.2403 48.8269 -51.8812 -4.45177 172.945 -70.1915 0 88.8779 141.856 69.7907 -53.5615 3.44058 28.7422 -9.02846 -160.418 25.6508 169.349 -152.862 64.1059 175.76 1.99362 -3.0747 -24.7032 -86.4375 49.4575 -67.2064 -3.95683 24.1907 -9.96587 8.92686 -0.747619 -7.60943 0.226643 0.16804 14.6092 -85.2263 -49.4995 115.862 15.9716 2.2134 103.942 9.29104 0.441464 5.45531 3.34876 1.65218 101.855 -35.3673 83.3606 24.7922 4.33782 2.30729 -0.556618 -8.5171 -38.6797 14.3131 -66.443 3.36268 90.1724 2.69323 44.7778 7.39303 -2.73237 1.35134 0.436182 -44.8536 43.6483 40.7304 
-28.6696 89.7418 48.7639 -53.1729 -4.8477 174.195 -70.1915 0 88.8779 136.52 70.2017 -49.3407 8.67835 27.1795 -9.03045 -160.924 24.7928 169.09 -153.81 63.2935 176.384 2.45675 -1.30154 -27.5844 -68.4966 47.2662 -90.2774 -0.384438 7.17796 -16.406 8.42177 -0.575885 -5.91647 0.13315 1.41392 17.8482 -74.4292 -48.8792 114.577 21.3652 1.04253 95.9289 9.86152 0.416479 4.78657 -5.54835 1.58872 101.426 -24.6755 80.9041 12.9152 4.91027 3.88463 -0.590828 -7.95126 -36.9512 16.9083 -60.8799 6.78577 88.9019 5.12179 65.7314 -3.50935 -3.4363 1.11318 0.53999 -29.7394 48.7185 19.7497 
-37.5854 90.1413 48.9881 -55.8677 -4.65499 171.141 -70.1915 0 88.8779 135.138 69.3128 -53.0643 11.3674 26.3893 -9.13209 -162.291 23.7648 170.059 -154.654 62.3338 177.55 2.88954 0.671938 -28.8434 -71.045 39.9043 -100.321 4.05469 4.40292 -23.202 10.0946 -0.701583 -6.06086 0.026826 1.81715 21.8231 -65.0787 -51.3419 112.02 20.9587 -4.58047 78.1881 5.36837 0.178334 3.93264 -19.8372 -2.20722 101.551 -13.6603 74.087 -2.59144 4.42016 1.4423 -0.597101 -9.3065 -41.3099 12.0427 -52.1603 6.31568 90.5048 108.892 86.4733 -108.803 -5.04477 0.465814 0.769036 -11.5895 42.8834 -1.89026 
-46.3935 89.8834 49.6772 -57.7394 -6.87074 166.754 -70.1915 0 88.8779 133.79 67.4441 -57.793 8.19884 25.4593 -7.08744 -164.235 23.6431 172.867 -158.355 62.7245 -179.175 3.28297 2.03517 -30.3396 -78.6638 31.3132 -111.903 4.28552 4.26005 -26.7409 13.8135 -1.04154 -6.73492 0.0447753 1.07127 25.4387 -63.199 -55.5173 105.017 19.9837 -12.6196 55.2715 9.55535 0.255729 2.90777 -28.8361 -10.515 101.436 -9.27297 69.3347 -3.30537 6.74225 2.88503 -0.885745 -10.2518 -46.2778 12.0745 -38.4707 2.45177 92.513 168.08 66.265 -166.742 -6.12866 -3.78779 0.981926 1.83379 30.5547 -18.7451 
-55.4002 89.09 49.801 -55.6891 -13.143 167.819 -70.1915 0 88.8779 128.157 66.0828 -53.362 2.51121 23.2231 -4.45352 -164.008 23.8562 172.713 -159.384 63.0298 -178.55 2.9622 1.23688 -28.6263 -90.9399 32.9811 -120.155 8.44702 8.41588 -37.0618 13.7431 -0.783007 -4.6917 0.139207 0.196029 27.7553 -73.9408 -60.2069 82.5167 21.5843 -19.6395 45.2721 10.608 0.194455 1.86055 -33.9796 -16.343 94.8067 -7.61676 65.1329 -6.53505 4.85525 0.746422 -0.675582 -10.5301 -46.2887 10.8465 -17.4009 -0.200873 92.5617 170.901 53.9116 -171.343 -7.21371 -5.03279 1.08936 7.62301 8.26198 -23.7924 
-67.5281 88.2089 49.4059 -54.5995 -13.4629 170.8 -70.1915 0 88.8779 124.083 66.3209 -49.0639 -1.60619 22.0981 -1.0515 -163.276 22.8738 172.766 -159.785 62.005 -179.473 2.67072 1.76489 -25.0737 -95.6984 38.3945 -127.201 14.2512 9.4872 -52.6419 15.7149 -1.02939 -5.63892 0.0498871 0.972515 25.9772 -73.6463 -64.1943 67.6425 21.6213 -19.1801 46.0155 8.68628 0.0862137 0.856499 -45.9611 -12.7935 91.284 -5.68703 57.0391 -12.2312 7.01281 -1.1372 -0.970228 -10.251 -46.1967 12.0065 -2.15843 2.20561 93.7264 170.777 54.7015 -170.894 -8.13972 -5.39245 1.16201 9.74266 -11.9993 -20.798 
-81.034 89.0378 49.4727 -53.425 -12.0862 176.034 -70.1915 0 88.8779 119.191 66.3715 -40.0292 -3.45048 20.4369 1.71204 -162.417 20.9992 173.074 -156.526 59.5771 176.097 2.34057 1.64731 -22.0761 -96.2061 40.6439 -127.951 22.6661 7.92136 -69.9739 16.0681 -0.9876 -5.18969 -0.148667 3.48993 22.355 -73.4013 -68.4249 56.7197 16.1618 -13.3633 45.9824 9.5007 0.20709 2.30163 -58.9416 -8.27867 83.5789 -3.60109 45.2488 -12.9035 3.72568 -3.69655 -0.708688 -8.12702 -35.867 13.9251 6.87503 2.91552 92.2937 167.58 67.3162 -165.26 -8.45752 -6.87826 1.1827 10.8407 -21.0737 -17.4668 
-94.2246 91.7905 49.3662 -54.995 -8.93451 -179.496 -70.1915 0 88.8779 121.457 65.4833 -38.692 -2.5491 19.2852 4.61078 -163.538 19.5565 172.805 -154.39 57.4672 171.603 2.33758 2.56161 -21.1694 -90.5305 40.902 -125.92 24.9392 4.36645 -79.9977 16.7014 -1.31931 -7.13509 -0.298452 5.24454 21.9089 -79.325 -66.7039 48.8495 6.63232 -4.37572 42.3284 9.03255 0.251727 3.05727 -68.708 -0.840528 86.2665 0.378443 38.2194 -14.4879 -2.45371 3.43432 0.502868 -2.07493 -1.12016 7.82201 5.75412 3.02932 88.6254 99.8787 86.3377 -95.7268 -7.4038 -7.38933 1.12089 11.7501 -25.6401 -16.3851 
-105.945 93.4264 49.7407 -55.9625 -4.85062 -178.297 -70.1915 0 88.8779 123.294 66.105 -39.227 0.302071 19.5844 6.72784 -165.173 18.0345 173.355 -153.864 55.6734 170.364 2.5567 2.98884 -22.6863 -82.1757 39.4106 -123.193 23.1926 4.61655 -78.507 14.869 -0.92544 -5.27669 -0.335852 4.62682 24.0042 -81.9244 -60.6912 51.8873 -0.908466 3.94158 41.8371 6.29074 0.162993 2.92351 -69.6009 -2.22111 79.9155 -3.34095 50.0444 -6.1905 0.227376 7.85231 0.404079 -4.49465 -7.62287 15.439 1.98133 3.75803 86.0004 9.01415 72.3633 -3.50792 -7.20357 -4.4951 1.08384 12.4564 -28.9156 -15.211 
